<?xml version="1.0" encoding="utf-8"?>
<!-- Generator: Adobe Illustrator 25.4.5, SVG Export Plug-In . SVG Version: 6.00 Build 0)  -->
<svg version="1.1" id="Layer_1" xmlns="http://www.w3.org/2000/svg" xmlns:xlink="http://www.w3.org/1999/xlink" x="0px" y="0px"
	 viewBox="0 0 517.7 83.3" style="enable-background:new 0 0 517.7 83.3;" xml:space="preserve">
<style type="text/css">
	.st0{fill:#965AFF;}
</style>
<path class="st0" d="M29.2,22.3H23l-2.1,2.1l-2.1,4.1l4.2,4.2l14.6,12.5l2.1,6.2l-2.1,8.3l-8.3,4.1l-10.4-2.1l-4.2,2.1l-2.1-14h2.1
	l6.2,9.9h6.2l4.2-2.1l2.1-2.1v-4.2l-4.2-4.2L14.7,34.8l-2.1-6.2l2.1-6.2l6.2-4.1l10.4,2.1l4.1-2.1l2.1,12.5h-2.1L29.2,22.3z"/>
<path class="st0" d="M45.9,57.7l12.5-33.3v-2.1l4.1-4.1L77,57.7l4.2,4.2H68.7l2.1-4.2l-3-8.3H53l-3,8.3l4.2,4.2H41.7L45.9,57.7z
	 M67.1,47.3l-6.6-18.7l-6.7,18.7L67.1,47.3z"/>
<path class="st0" d="M87.4,57.7V24.4l-4.2-4.2h14.6l-4.2,4.2v33.3l2.1,2.1h10.4l6.2-10.4h2l-2,14.5l-4.2-2.1h-25L87.4,57.7z"/>
<path class="st0" d="M133.2,61.8l-8.3-4.2l-4.2-6.2L118.6,41l2.1-10.4l4.2-6.2l8.3-4.2h12.5l8.3,4.2l4.2,6.2l2.1,10.4l-2.1,10.4
	l-4.2,6.2l-8.3,4.2H133.2z M141.5,22.3h-4.2l-6.2,4.2l-4.1,6.2v16.6l4.1,6.2l6.2,4.2h4.2l6.2-4.2l4.1-6.2V32.7l-4.1-6.2L141.5,22.3z
	"/>
<path class="st0" d="M212.2,20.2l-4.2,4.2v33.3l4.2,4.2h-14.6l4.1-4.2v-27l-12.5,31.2l-2.1,2.1l-14.6-35.3v29.1l4.2,4.2h-12.5
	l4.1-4.2V24.4l-4.1-4.2h12.5l12.5,31.2l12.5-31.2H212.2z"/>
<path class="st0" d="M243.3,61.8h-27l4.2-4.2V24.4l-4.2-4.2h20.8l8.3-2.1l2.1,12.5h-2.1l-6.2-8.3h-10.4l-2.1,2.1v12.5l2.1,2.1h8.3
	l4.2-4.2v10.4l-4.2-4.2h-8.3l-2.1,2.1v14.5l2.1,2.1h12.5l6.2-10.4h2.1l-2.1,14.5L243.3,61.8z M235,5.7l2.1,2.1v2.1L226.7,14h-2.1
	l8.3-8.3L235,5.7z"/>
<path class="st0" d="M308.4,57.7V24.4l-4.1-4.2h14.5l-4.2,4.2v33.3l2.1,2.1h10.4l6.2-10.4h2.1l-2.1,14.5l-4.2-2.1h-24.9L308.4,57.7z
	"/>
<path class="st0" d="M341.7,57.7l12.5-33.3v-2.1l4.2-4.2l14.5,39.5l4.2,4.2h-12.5l2.1-4.2l-3-8.3h-14.8l-3,8.3l4.2,4.2h-12.4
	L341.7,57.7z M362.9,47.3l-6.7-18.7l-6.7,18.7H362.9z"/>
<path class="st0" d="M402.4,24.4l-4.2-4.2H419l8.3-2.1l2.1,12.5h-2.1l-6.2-8.3h-10.4l-2.1,2.1v12.5l2.1,2.1h8.3l4.2-4.2v10.4L419,41
	h-8.3l-2.1,2.1v14.5l4.1,4.2h-14.6l4.2-4.2V24.4z"/>
<path class="st0" d="M460.6,61.8h-27l4.2-4.2V24.4l-4.2-4.2h20.8l8.3-2.1l2.1,12.5h-2.1l-6.3-8.3H446l-2.1,2.1v12.5l2.1,2.1h8.3
	l4.2-4.2v10.4l-4.2-4.2H446l-2.1,2.1v14.5l2.1,2.1h12.5l6.2-10.4h2.1l-2.1,14.5L460.6,61.8z M452.2,5.7l2.1,2.1v2.1L443.9,14h-2.1
	l8.3-8.3L452.2,5.7z"/>
<path class="st0" d="M498,61.8h-27l4.2-4.2V24.4l-4.2-4.2h20.8l8.3-2.1l2.1,12.5h-2.1l-6.2-8.3h-10.4l-2.1,2.1v12.5l2.1,2.1h8.3
	l4.2-4.2v10.4l-4.2-4.2h-8.3l-2.1,2.1v14.5l2.1,2.1h12.5l6.2-10.4h2.1l-2.1,14.5L498,61.8z"/>
<path class="st0" d="M277,62.1c0-3.5-0.1-7.1-0.5-10.6c-0.2-2.4-0.7-4.8-1.4-7.1c-0.5-1.6-1.3-3.1-2.5-4.2c-1-0.9-2.3-1.6-3.6-2
	c-1.6-0.4-3.2-0.6-4.9-0.5v-0.7c1.5,0,2.7,0,3.6-0.1c1-0.1,2-0.2,2.9-0.5c0.9-0.2,1.7-0.6,2.4-1.2c0.7-0.6,1.2-1.3,1.7-2.1
	c0.6-1,1.1-2.2,1.3-3.4c0.3-1.6,0.5-3.3,0.7-5c0.2-1.9,0.2-4.2,0.2-6.8h0.7c0,2.3,0,4.3,0.1,6c0.1,1.5,0.2,3.1,0.5,4.6
	c0.2,1.1,0.5,2.3,0.8,3.4c0.3,0.9,0.7,1.6,1.3,2.3c0.5,0.6,1.1,1.1,1.7,1.5c0.7,0.4,1.5,0.7,2.4,0.8c0.9,0.2,1.9,0.3,2.9,0.4
	c0.9,0,2.1,0.1,3.6,0.1v0.7c-1.6,0-3.1,0.1-4.7,0.3c-1.2,0.2-2.4,0.7-3.5,1.4c-1,0.7-1.9,1.6-2.5,2.7c-0.7,1.4-1.2,2.9-1.5,4.5
	c-0.5,2.2-0.8,4.3-0.9,6.5c-0.2,2.5-0.2,5.5-0.2,9.1L277,62.1z"/>
</svg>
